<svg id="fe953aa2-a746-4179-a55f-ea844fa17650" data-name="Icon" xmlns="http://www.w3.org/2000/svg" viewBox="0 0 36 36">
  <path d="M32.18,20.65H27.32a9.33,9.33,0,0,0-.75-3.12h2.34a.6.6,0,0,0,.44-.18l2.18-2.18a.62.62,0,0,0-.88-.88l-2,2H25.9a9.41,9.41,0,0,0-5.43-4,3.9,3.9,0,1,0-4.94,0,9.41,9.41,0,0,0-5.43,4H7.35l-2-2a.62.62,0,0,0-.88.88l2.18,2.18a.6.6,0,0,0,.44.18H9.43a9.33,9.33,0,0,0-.75,3.12H3.82a.63.63,0,1,0,0,1.25H8.68A9.21,9.21,0,0,0,9.43,25H7.09a.65.65,0,0,0-.44.18L4.47,27.38a.61.61,0,0,0,0,.88.63.63,0,0,0,.88,0l2-2H10.1a9.34,9.34,0,0,0,15.8,0h2.75l2,2a.63.63,0,0,0,.88,0,.61.61,0,0,0,0-.88l-2.18-2.19a.65.65,0,0,0-.44-.18H26.57a9.21,9.21,0,0,0,.75-3.11h4.86a.63.63,0,1,0,0-1.25ZM15.35,9.27A2.65,2.65,0,1,1,18,11.92,2.65,2.65,0,0,1,15.35,9.27ZM18,29.38a8.11,8.11,0,1,1,8.1-8.11A8.11,8.11,0,0,1,18,29.38Z"/>
</svg>
