<?xml version="1.0" encoding="UTF-8"?>
<svg id="artwork" xmlns="http://www.w3.org/2000/svg" viewBox="0 0 1920 1765">
  <defs>
    <style>
      .cls-1 {
        fill: #93aebf;
      }

      .cls-2 {
        fill: #dce8f2;
      }

      .cls-3 {
        fill: #0f1b26;
      }

      .cls-4 {
        fill: #30728c;
      }
    </style>
  </defs>
  <g>
    <path class="cls-3" d="m5,1542.71h128.24v15.76h-55.79v196.46h-16.67v-196.46H5v-15.76Z"/>
    <path class="cls-3" d="m257.24,1754.93h20.62l-64.44-90.05c8.19-1.09,15.78-3.15,22.75-6.21,10.81-4.75,19.35-11.77,25.62-21.07,6.26-9.29,9.4-20.41,9.4-33.35s-3.14-24.25-9.4-33.35c-6.27-9.1-14.81-16.07-25.62-20.92-10.81-4.85-23.09-7.28-36.84-7.28h-48.51v212.23h16.67v-89.13h27.83l61.91,89.13Zm-89.74-197.37h31.83c10.71,0,20.21,1.82,28.5,5.46,8.28,3.64,14.8,8.9,19.55,15.77,4.75,6.87,7.12,15.36,7.12,25.47s-2.33,18.65-6.97,25.62c-4.65,6.97-11.17,12.23-19.55,15.77-8.39,3.54-17.94,5.31-28.65,5.31h-31.83v-93.38Z"/>
    <path class="cls-3" d="m312.42,1542.71v143.71c0,16.98,4.44,30.52,13.34,40.63,8.89,10.11,21.53,15.16,37.9,15.16s29-5.05,37.9-15.16c8.89-10.1,13.34-23.65,13.34-40.63v-143.71h16.68v143.71c0,10.51-1.52,20.16-4.55,28.95-3.03,8.79-7.48,16.32-13.34,22.59-5.86,6.27-12.99,11.17-21.37,14.7-8.39,3.53-17.94,5.31-28.65,5.31s-20.27-1.77-28.65-5.31c-8.39-3.53-15.51-8.44-21.37-14.7-5.86-6.26-10.31-13.79-13.34-22.59-3.03-8.79-4.55-18.44-4.55-28.95v-143.71h16.68Z"/>
    <path class="cls-3" d="m482.95,1717.95c4.95,7.28,11.07,13.09,18.34,17.43,7.28,4.35,15.96,6.52,26.07,6.52,13.74,0,24.51-3.79,32.29-11.37,7.78-7.58,11.67-17.23,11.67-28.95,0-10.31-2.33-18.59-6.97-24.86-4.65-6.26-10.66-11.37-18.04-15.31-7.38-3.94-15.11-7.43-23.19-10.46-6.06-2.22-12.38-4.9-18.95-8.03-6.57-3.13-12.69-6.97-18.34-11.52-5.66-4.55-10.26-10.05-13.79-16.52-3.54-6.47-5.31-14.25-5.31-23.34,0-10.1,2.43-19.05,7.28-26.83,4.85-7.78,11.62-13.84,20.31-18.19,8.69-4.34,18.49-6.52,29.41-6.52s21.07,2.12,29.26,6.37c8.19,4.24,15.01,9.6,20.46,16.07,5.46,6.47,9.6,13.14,12.43,20.01l-14.55,8.19c-2.23-5.46-5.41-10.81-9.55-16.07-4.14-5.25-9.35-9.65-15.61-13.19-6.27-3.53-14.05-5.31-23.34-5.31-12.33,0-21.83,3.18-28.5,9.55-6.67,6.37-10,14.3-10,23.8,0,7.88,1.92,14.66,5.76,20.31,3.84,5.66,9.6,10.76,17.28,15.31,7.68,4.55,17.18,8.84,28.5,12.89,5.86,2.23,11.92,4.95,18.19,8.19,6.26,3.24,11.98,7.28,17.13,12.13,5.15,4.85,9.35,10.66,12.58,17.43,3.23,6.77,4.85,14.81,4.85,24.1,0,8.69-1.57,16.58-4.7,23.65-3.14,7.08-7.48,13.19-13.04,18.34-5.56,5.15-12.08,9.1-19.56,11.82-7.48,2.73-15.57,4.09-24.25,4.09-12.33,0-23.15-2.53-32.44-7.58-9.3-5.05-17.08-11.82-23.34-20.31-6.27-8.49-11.12-17.68-14.55-27.59l13.64-8.49c3.43,8.9,7.63,16.98,12.58,24.25Z"/>
    <path class="cls-3" d="m594.37,1542.71h128.24v15.76h-55.79v196.46h-16.67v-196.46h-55.78v-15.76Z"/>
    <path class="cls-3" d="m756.26,1542.71v212.23h-16.67v-212.23h16.67Z"/>
    <polygon class="cls-3" points="896.33 1558.47 896.33 1542.71 811.14 1542.71 803.25 1542.71 794.46 1542.71 794.46 1754.93 811.14 1754.93 811.14 1647.91 893.3 1647.91 893.3 1632.15 811.14 1632.15 811.14 1558.47 896.33 1558.47"/>
    <path class="cls-3" d="m943.93,1542.71v212.23h-16.67v-212.23h16.67Z"/>
    <path class="cls-3" d="m999.41,1696.42c7.68,13.75,17.99,24.56,30.92,32.44,12.93,7.88,27.39,11.82,43.35,11.82,10.1,0,19.3-1.11,27.59-3.34,8.28-2.22,15.81-5.56,22.59-10,6.77-4.44,12.78-9.7,18.04-15.77v22.44c-8.9,7.88-18.6,13.79-29.11,17.74-10.51,3.94-23.55,5.91-39.11,5.91-14.76,0-28.45-2.68-41.08-8.03-12.63-5.35-23.6-12.89-32.9-22.59-9.3-9.7-16.58-21.22-21.83-34.56-5.26-13.34-7.88-27.89-7.88-43.66s2.62-30.32,7.88-43.66c5.25-13.34,12.53-24.86,21.83-34.56,9.29-9.7,20.26-17.23,32.9-22.59,12.63-5.35,26.32-8.03,41.08-8.03,15.56,0,28.6,1.97,39.11,5.91,10.51,3.94,20.21,9.85,29.11,17.74v22.13c-5.26-6.06-11.32-11.26-18.19-15.61-6.87-4.34-14.45-7.63-22.74-9.85-8.29-2.22-17.39-3.33-27.29-3.33-15.97,0-30.42,3.89-43.35,11.67-12.94,7.78-23.25,18.55-30.92,32.29-7.68,13.75-11.52,29.71-11.52,47.9s3.84,33.86,11.52,47.6Z"/>
    <path class="cls-3" d="m1318.96,1754.93h18.8l-93.68-220.41-93.68,220.41h18.8l29.11-71.25h91.37l29.29,71.25Zm-35.68-87.01h-78.2l38.99-94.89,39.21,94.89Z"/>
    <path class="cls-3" d="m1311.38,1542.71h128.24v15.76h-55.78v196.46h-16.67v-196.46h-55.78v-15.76Z"/>
    <path class="cls-3" d="m1473.27,1542.71v212.23h-16.68v-212.23h16.68Z"/>
    <path class="cls-3" d="m1507.22,1605.62c5.25-13.24,12.63-24.76,22.13-34.56,9.5-9.8,20.66-17.43,33.5-22.89,12.83-5.46,26.83-8.19,41.99-8.19s29.15,2.73,41.99,8.19c12.83,5.46,24,13.09,33.5,22.89,9.5,9.81,16.87,21.33,22.13,34.56,5.25,13.24,7.88,27.64,7.88,43.2s-2.63,29.97-7.88,43.2c-5.26,13.24-12.63,24.76-22.13,34.56-9.5,9.81-20.67,17.43-33.5,22.89-12.84,5.46-26.83,8.19-41.99,8.19s-29.16-2.73-41.99-8.19c-12.84-5.46-24-13.08-33.5-22.89-9.5-9.8-16.88-21.32-22.13-34.56-5.26-13.24-7.88-27.64-7.88-43.2s2.62-29.96,7.88-43.2Zm21.07,90.5c7.58,13.95,17.99,24.91,31.23,32.9,13.24,7.99,28.35,11.98,45.33,11.98s32.08-3.99,45.32-11.98c13.24-7.98,23.6-18.95,31.08-32.9,7.48-13.95,11.22-29.71,11.22-47.3s-3.74-33.6-11.22-47.45c-7.48-13.84-17.84-24.76-31.08-32.74-13.24-7.98-28.35-11.98-45.32-11.98s-32.09,3.99-45.33,11.98c-13.24,7.99-23.65,18.9-31.23,32.74-7.58,13.85-11.37,29.66-11.37,47.45s3.79,33.35,11.37,47.3Z"/>
    <path class="cls-3" d="m1915,1542.71v220.41l-161.29-185.24v177.06h-16.67v-220.41l161.29,185.85v-177.66h16.67Z"/>
  </g>
  <g>
    <rect class="cls-3" x="300.78" y="5" width="1325.11" height="1325.11" rx="80.41" ry="80.41"/>
    <path class="cls-1" d="m1161.04,678.52h-57.07c-22.2,0-40.2,18-40.2,40.2v306.69c0,22.2-18,40.2-40.2,40.2h-115.72c-22.2,0-40.2-18-40.2-40.2V385.14c0-22.2-18-40.2-40.2-40.2h-57.07c-22.2,0-40.2,18-40.2,40.2v777.73c0,22.2,18,40.2,40.2,40.2h390.65c22.2,0,40.2-18,40.2-40.2v-444.15c0-22.2-18-40.2-40.2-40.2Z"/>
    <path class="cls-2" d="m426.71,172.24v390.65c0,22.2,18,40.2,40.2,40.2h147.65c22.2,0,40.2-18,40.2-40.2v-57.07c0-22.2-18-40.2-40.2-40.2h-10.19c-22.2,0-40.2-18-40.2-40.2v-115.72c0-22.2,18-40.2,40.2-40.2h419.2c22.2,0,40.2,18,40.2,40.2v40.29c0,22.2,18,40.2,40.2,40.2h57.07c22.2,0,40.2-18,40.2-40.2v-177.75c0-22.2-18-40.2-40.2-40.2H466.91c-22.2,0-40.2,18-40.2,40.2Z"/>
    <path class="cls-4" d="m1276.67,172.24v57.07c0,22.2,18,40.2,40.2,40.2h5.43c22.2,0,40.2,18,40.2,40.2v115.72c0,22.2-18,40.2-40.2,40.2h-339.01c-22.2,0-40.2,18-40.2,40.2v57.07c0,22.2,18,40.2,40.2,40.2h476.48c22.2,0,40.2-18,40.2-40.2V172.24c0-22.2-18-40.2-40.2-40.2h-142.89c-22.2,0-40.2,18-40.2,40.2Z"/>
  </g>
</svg>