<?xml version="1.0" encoding="iso-8859-1"?>
<!-- Uploaded to: SVG Repo, www.svgrepo.com, Generator: SVG Repo Mixer Tools -->
<svg height="800px" width="800px" version="1.1" id="Layer_1" xmlns="http://www.w3.org/2000/svg" xmlns:xlink="http://www.w3.org/1999/xlink" 
	 viewBox="0 0 511.987 511.987" xml:space="preserve">
<path style="fill:#434A54;" d="M255.993,511.987c100.139,0,181.323-14.327,181.323-31.998L426.646,202.66
	c0,0-42.655-21.335-170.652-21.335c-128.004,0-170.667,21.335-170.667,21.335L74.662,479.989
	C74.662,497.66,155.848,511.987,255.993,511.987z"/>
<g style="opacity:0.1;">
	<path style="fill:#FFFFFF;" d="M426.646,202.66c0,0-42.655-21.335-170.652-21.335c-3.633,0-7.18,0.023-10.671,0.055
		c119.699,1.141,159.996,21.28,159.996,21.28l10.671,277.329c0,17.03-75.498,30.967-170.667,31.936
		c3.53,0.031,7.085,0.062,10.671,0.062c100.139,0,181.323-14.327,181.323-31.998L426.646,202.66z"/>
</g>
<path style="fill:#656D78;" d="M511.987,191.996c0,41.233-114.621,74.662-255.993,74.662c-141.387,0-255.993-33.429-255.993-74.662
	c0-41.241,114.606-74.67,255.993-74.67C397.366,117.326,511.987,150.755,511.987,191.996z"/>
<path style="fill:#434A54;" d="M255.993,223.995c-46.271,0-90.021-4.133-123.199-11.624c-37.546-8.477-46.921-18.133-47.46-20.375
	c0.539-2.25,9.914-11.905,47.46-20.382c33.179-7.492,76.928-11.617,123.199-11.617c46.265,0,90.014,4.125,123.185,11.617
	c37.562,8.477,46.937,18.132,47.468,20.382c-0.531,2.242-9.906,11.898-47.468,20.375
	C346.008,219.862,302.259,223.995,255.993,223.995z"/>
<path style="fill:#E6E9ED;" d="M127.435,211.105c1.719,0.43,3.508,0.852,5.359,1.266c30.585,6.906,70.154,10.952,112.396,11.546
	C238.089,91.507,168.505,0.001,145.566,0.001c-3.414,0-5.797,2.023-6.781,6.25c-15.976,68.514-29.89,127.278-13.397,196.722
	C126.045,205.746,126.731,208.449,127.435,211.105z"/>
<path style="fill:#EC87C0;" d="M160.708,120.764c0.133,0.391,12.336,36.741,20.616,99.403c7.055,0.766,14.328,1.414,21.766,1.953
	c-8.258-65.482-20.805-104.099-22.094-107.966l0,0c-0.047-0.117-0.07-0.211-0.094-0.266l-0.008,0.008
	c-1.43-4.202-5.398-7.233-10.085-7.233c-5.891,0-10.672,4.772-10.672,10.663c0,1.203,0.211,2.359,0.578,3.438L160.708,120.764
	L160.708,120.764z"/>
<path style="fill:#E6E9ED;" d="M379.178,212.371c1.859-0.414,3.656-0.836,5.375-1.266c0.688-2.656,1.375-5.359,2.031-8.133
	c16.5-69.443,2.594-128.208-13.391-196.722C372.21,2.023,369.835,0,366.413,0C343.475,0,273.9,91.506,266.79,223.916
	C309.023,223.323,348.6,219.277,379.178,212.371z"/>
<path style="fill:#EC87C0;" d="M330.664,220.167c6.578-49.607,16.077-86.052,20.608-99.411l0,0c0.359-1.078,0.562-2.227,0.562-3.43
	c0-5.891-4.781-10.663-10.656-10.663c-4.687,0-8.655,3.031-10.093,7.233v-0.008c-0.031,0.055-0.062,0.148-0.094,0.266l0,0
	c-1.297,3.867-13.844,42.483-22.094,107.966C316.336,221.581,323.602,220.932,330.664,220.167z"/>
</svg>