<svg id="afea3f02-e08b-4fe1-a633-dbe4b169f588" data-name="Icon" xmlns="http://www.w3.org/2000/svg" viewBox="0 0 36 36">
  <defs>
    <style>
      .bce3eae5-d432-45ca-9103-7a7f0e0b0909 {
        fill: #e00;
      }
    </style>
  </defs>
  <g>
    <path class="bce3eae5-d432-45ca-9103-7a7f0e0b0909" d="M22,20.71a.62.62,0,0,0-.62.62v2.05H14.62V16.62h4.71a.62.62,0,0,0,0-1.24H14a.62.62,0,0,0-.62.62v8a.62.62,0,0,0,.62.62h8a.62.62,0,0,0,.62-.62V21.33A.62.62,0,0,0,22,20.71Z"/>
    <path class="bce3eae5-d432-45ca-9103-7a7f0e0b0909" d="M17.11,19.56a.63.63,0,1,0-.89.88l1.34,1.34a.63.63,0,0,0,.88,0l4-4a.63.63,0,0,0-.88-.89L18,20.45Z"/>
    <path class="bce3eae5-d432-45ca-9103-7a7f0e0b0909" d="M27,7.38H23a.62.62,0,0,0-.62.62V9.18H13.62V8A.62.62,0,0,0,13,7.38H9A.62.62,0,0,0,8.38,8V31a.62.62,0,0,0,.62.62H27a.62.62,0,0,0,.62-.62V8A.62.62,0,0,0,27,7.38Zm-.62,23H9.62V8.62h2.76V9.81a.62.62,0,0,0,.62.62H23a.62.62,0,0,0,.62-.62V8.62h2.76Z"/>
    <path class="bce3eae5-d432-45ca-9103-7a7f0e0b0909" d="M12,6.62h3.09a.63.63,0,0,0,.67-.4,2.39,2.39,0,0,1,4.48,0,.6.6,0,0,0,.68.4H24a.62.62,0,0,0,0-1.24H21.23a3.63,3.63,0,0,0-6.46,0H12A.62.62,0,0,0,12,6.62Z"/>
    <circle class="bce3eae5-d432-45ca-9103-7a7f0e0b0909" cx="18" cy="6" r="0.62"/>
  </g>
</svg>
