<?xml version="1.0" encoding="UTF-8"?>
<svg id="artwork" xmlns="http://www.w3.org/2000/svg" viewBox="0 0 1024 1024">
  <defs>
    <style>
      .cls-1 {
        fill: #93aebf;
      }

      .cls-2 {
        fill: #dce8f2;
      }

      .cls-3 {
        fill: #0f1b26;
      }

      .cls-4 {
        fill: #30728c;
      }
    </style>
  </defs>
  <rect class="cls-3" width="1024" height="1024" rx="62.14" ry="62.14"/>
  <path class="cls-1" d="m664.78,520.47h-44.1c-17.16,0-31.06,13.91-31.06,31.06v237c0,17.16-13.91,31.06-31.06,31.06h-89.43c-17.16,0-31.06-13.91-31.06-31.06v-494.78c0-17.16-13.91-31.06-31.06-31.06h-44.1c-17.16,0-31.06,13.91-31.06,31.06v601c0,17.16,13.91,31.06,31.06,31.06h301.88c17.16,0,31.06-13.91,31.06-31.06v-343.22c0-17.16-13.91-31.06-31.06-31.06Z"/>
  <path class="cls-2" d="m97.32,129.24v301.88c0,17.16,13.91,31.06,31.06,31.06h114.1c17.16,0,31.06-13.91,31.06-31.06v-44.1c0-17.16-13.91-31.06-31.06-31.06h-7.87c-17.16,0-31.06-13.91-31.06-31.06v-89.43c0-17.16,13.91-31.06,31.06-31.06h323.94c17.16,0,31.06,13.91,31.06,31.06v31.13c0,17.16,13.91,31.06,31.06,31.06h44.1c17.16,0,31.06-13.91,31.06-31.06v-137.36c0-17.16-13.91-31.06-31.06-31.06H128.38c-17.16,0-31.06,13.91-31.06,31.06Z"/>
  <path class="cls-4" d="m754.13,129.24v44.1c0,17.16,13.91,31.06,31.06,31.06h4.2c17.16,0,31.06,13.91,31.06,31.06v89.43c0,17.16-13.91,31.06-31.06,31.06h-261.98c-17.16,0-31.06,13.91-31.06,31.06v44.1c0,17.16,13.91,31.06,31.06,31.06h368.2c17.16,0,31.06-13.91,31.06-31.06V129.24c0-17.16-13.91-31.06-31.06-31.06h-110.42c-17.16,0-31.06,13.91-31.06,31.06Z"/>
</svg>