<?xml version="1.0" encoding="UTF-8"?>
<svg id="artwork" xmlns="http://www.w3.org/2000/svg" viewBox="0 0 1920 270" width="1920px" height="270px">
  <defs>
    <style>
      .cls-1 {
        fill: #fff;
      }

      .cls-2 {
        fill: #93aebf;
      }

      .cls-3 {
        fill: #123e59;
      }

      .cls-4 {
        fill: #30728c;
      }
    </style>
  </defs>
  <path class="cls-1" d="m360.86,48.68h104.35v12.83h-45.39v159.86h-13.57V61.51h-45.39v-12.83Z"/>
  <path class="cls-1" d="m566.1,221.37h16.78l-52.43-73.27c6.66-.89,12.84-2.56,18.51-5.05,8.8-3.86,15.75-9.58,20.85-17.15,5.1-7.56,7.65-16.61,7.65-27.14s-2.55-19.74-7.65-27.14c-5.1-7.4-12.05-13.07-20.85-17.02-8.8-3.95-18.79-5.92-29.97-5.92h-39.47v172.69h13.57v-72.53h22.64l50.38,72.53Zm-73.02-160.6h25.9c8.72,0,16.44,1.48,23.19,4.44,6.74,2.96,12.05,7.24,15.91,12.83,3.86,5.59,5.8,12.5,5.8,20.72s-1.89,15.17-5.67,20.85c-3.78,5.67-9.09,9.95-15.91,12.83-6.83,2.88-14.6,4.32-23.31,4.32h-25.9V60.77Z"/>
  <path class="cls-1" d="m611,48.68v116.93c0,13.82,3.62,24.84,10.85,33.06,7.24,8.23,17.52,12.33,30.84,12.33s23.6-4.11,30.84-12.33c7.24-8.22,10.85-19.24,10.85-33.06V48.68h13.57v116.93c0,8.55-1.23,16.41-3.7,23.56-2.47,7.15-6.09,13.28-10.85,18.38-4.77,5.1-10.57,9.09-17.39,11.96-6.83,2.88-14.6,4.32-23.31,4.32s-16.49-1.44-23.31-4.32c-6.83-2.88-12.62-6.87-17.39-11.96-4.77-5.1-8.39-11.22-10.85-18.38-2.47-7.15-3.7-15.01-3.7-23.56V48.68h13.57Z"/>
  <path class="cls-1" d="m749.76,191.27c4.03,5.92,9,10.65,14.92,14.18,5.92,3.54,12.99,5.3,21.22,5.3,11.18,0,19.94-3.08,26.27-9.25,6.33-6.17,9.5-14.02,9.5-23.56,0-8.39-1.89-15.13-5.67-20.23-3.79-5.1-8.68-9.25-14.68-12.46-6.01-3.21-12.3-6.04-18.87-8.51-4.93-1.81-10.08-3.99-15.42-6.54-5.35-2.55-10.32-5.67-14.93-9.37-4.61-3.7-8.35-8.18-11.22-13.44-2.88-5.26-4.32-11.59-4.32-19,0-8.22,1.97-15.5,5.92-21.83,3.95-6.33,9.46-11.26,16.53-14.8,7.07-3.53,15.05-5.3,23.93-5.3s17.15,1.73,23.81,5.18c6.66,3.45,12.21,7.81,16.65,13.07,4.44,5.27,7.81,10.69,10.11,16.28l-11.84,6.66c-1.81-4.44-4.4-8.8-7.77-13.07-3.37-4.27-7.61-7.85-12.7-10.73-5.1-2.88-11.43-4.32-19-4.32-10.03,0-17.76,2.59-23.19,7.77-5.43,5.18-8.14,11.64-8.14,19.37,0,6.41,1.56,11.93,4.69,16.53,3.12,4.61,7.81,8.76,14.06,12.46,6.25,3.7,13.98,7.2,23.19,10.48,4.77,1.81,9.7,4.03,14.8,6.66,5.1,2.63,9.74,5.92,13.94,9.87,4.19,3.95,7.61,8.68,10.24,14.18,2.63,5.51,3.95,12.05,3.95,19.61,0,7.07-1.28,13.49-3.82,19.24-2.55,5.76-6.09,10.73-10.61,14.93-4.53,4.19-9.83,7.4-15.91,9.62-6.09,2.22-12.67,3.33-19.74,3.33-10.03,0-18.83-2.06-26.4-6.17-7.57-4.11-13.9-9.62-19-16.53-5.1-6.91-9.05-14.39-11.84-22.45l11.1-6.91c2.79,7.24,6.21,13.82,10.24,19.74Z"/>
  <path class="cls-1" d="m840.42,48.68h104.35v12.83h-45.39v159.86h-13.57V61.51h-45.39v-12.83Z"/>
  <path class="cls-1" d="m972.15,48.68v172.69h-13.57V48.68h13.57Z"/>
  <polygon class="cls-1" points="1086.12 61.51 1086.12 48.68 1016.8 48.68 1010.39 48.68 1003.23 48.68 1003.23 221.37 1016.8 221.37 1016.8 134.29 1083.65 134.29 1083.65 121.46 1016.8 121.46 1016.8 61.51 1086.12 61.51"/>
  <path class="cls-1" d="m1124.85,48.68v172.69h-13.57V48.68h13.57Z"/>
  <path class="cls-1" d="m1169.99,173.76c6.25,11.19,14.64,19.98,25.16,26.4,10.52,6.41,22.28,9.62,35.28,9.62,8.22,0,15.7-.9,22.45-2.71,6.74-1.81,12.87-4.52,18.38-8.14,5.51-3.62,10.4-7.89,14.68-12.83v18.26c-7.24,6.41-15.13,11.22-23.68,14.43-8.55,3.21-19.16,4.81-31.82,4.81-12.01,0-23.15-2.18-33.43-6.54-10.28-4.36-19.2-10.48-26.77-18.38-7.57-7.89-13.49-17.27-17.76-28.12-4.28-10.85-6.41-22.7-6.41-35.52s2.14-24.67,6.41-35.52c4.27-10.85,10.2-20.23,17.76-28.12,7.56-7.89,16.49-14.02,26.77-18.38,10.28-4.36,21.42-6.54,33.43-6.54,12.66,0,23.27,1.6,31.82,4.81,8.55,3.21,16.44,8.02,23.68,14.43v18.01c-4.28-4.93-9.21-9.17-14.8-12.7-5.59-3.53-11.76-6.21-18.5-8.02-6.75-1.81-14.15-2.71-22.2-2.71-12.99,0-24.75,3.17-35.28,9.5-10.53,6.33-18.91,15.09-25.16,26.27-6.25,11.19-9.37,24.18-9.37,38.98s3.12,27.55,9.37,38.73Z"/>
  <path class="cls-1" d="m1430.01,221.37h15.29l-76.23-179.35-76.23,179.35h15.29l23.69-57.97h74.35l23.83,57.97Zm-29.03-70.8h-63.63l31.73-77.21,31.9,77.21Z"/>
  <path class="cls-1" d="m1423.84,48.68h104.35v12.83h-45.39v159.86h-13.57V61.51h-45.39v-12.83Z"/>
  <path class="cls-1" d="m1555.57,48.68v172.69h-13.57V48.68h13.57Z"/>
  <path class="cls-1" d="m1583.2,99.87c4.27-10.77,10.28-20.14,18.01-28.12,7.73-7.97,16.81-14.18,27.26-18.63,10.44-4.44,21.83-6.66,34.17-6.66s23.72,2.22,34.17,6.66c10.44,4.44,19.53,10.65,27.26,18.63,7.73,7.98,13.73,17.35,18.01,28.12,4.27,10.77,6.41,22.49,6.41,35.15s-2.14,24.38-6.41,35.15c-4.28,10.77-10.28,20.15-18.01,28.12-7.73,7.98-16.82,14.18-27.26,18.63-10.45,4.44-21.83,6.66-34.17,6.66s-23.73-2.22-34.17-6.66c-10.45-4.44-19.53-10.65-27.26-18.63-7.73-7.97-13.73-17.35-18.01-28.12-4.28-10.77-6.41-22.49-6.41-35.15s2.14-24.38,6.41-35.15Zm17.14,73.64c6.17,11.35,14.64,20.27,25.41,26.77,10.77,6.5,23.07,9.74,36.88,9.74s26.11-3.25,36.88-9.74c10.77-6.5,19.2-15.42,25.29-26.77,6.08-11.35,9.13-24.18,9.13-38.48s-3.04-27.34-9.13-38.61c-6.09-11.26-14.52-20.14-25.29-26.64-10.77-6.49-23.07-9.74-36.88-9.74s-26.11,3.25-36.88,9.74c-10.77,6.5-19.24,15.38-25.41,26.64-6.17,11.27-9.25,24.14-9.25,38.61s3.08,27.14,9.25,38.48Z"/>
  <path class="cls-1" d="m1915,48.68v179.35l-131.24-150.73v144.07h-13.57V42.02l131.24,151.22V48.68h13.57Z"/>
  <rect class="cls-1" x="5" y="5.99" width="258.08" height="258.08" rx="15.66" ry="15.66"/>
  <path class="cls-2" d="m172.54,137.16h-11.11c-4.32,0-7.83,3.51-7.83,7.83v59.73c0,4.32-3.51,7.83-7.83,7.83h-22.54c-4.32,0-7.83-3.51-7.83-7.83v-124.7c0-4.32-3.51-7.83-7.83-7.83h-11.11c-4.32,0-7.83,3.51-7.83,7.83v151.47c0,4.32,3.51,7.83,7.83,7.83h76.08c4.32,0,7.83-3.51,7.83-7.83v-86.5c0-4.32-3.51-7.83-7.83-7.83Z"/>
  <path class="cls-3" d="m29.53,38.56v76.08c0,4.32,3.51,7.83,7.83,7.83h28.76c4.32,0,7.83-3.51,7.83-7.83v-11.11c0-4.32-3.51-7.83-7.83-7.83h-1.98c-4.32,0-7.83-3.51-7.83-7.83v-22.54c0-4.32,3.51-7.83,7.83-7.83h81.64c4.32,0,7.83,3.51,7.83,7.83v7.85c0,4.32,3.5,7.83,7.83,7.83h11.11c4.32,0,7.83-3.51,7.83-7.83v-34.62c0-4.32-3.51-7.83-7.83-7.83H37.36c-4.32,0-7.83,3.51-7.83,7.83Z"/>
  <path class="cls-4" d="m195.06,38.56v11.11c0,4.32,3.51,7.83,7.83,7.83h1.06c4.32,0,7.83,3.51,7.83,7.83v22.54c0,4.32-3.51,7.83-7.83,7.83h-66.03c-4.32,0-7.83,3.51-7.83,7.83v11.11c0,4.32,3.51,7.83,7.83,7.83h92.8c4.32,0,7.83-3.51,7.83-7.83V38.56c0-4.32-3.51-7.83-7.83-7.83h-27.83c-4.32,0-7.83,3.51-7.83,7.83Z"/>
</svg>